<?xml version="1.0" encoding="utf-8"?>
<!-- Generator: Adobe Illustrator 24.1.3, SVG Export Plug-In . SVG Version: 6.00 Build 0)  -->
<svg version="1.1" id="Layer_1" xmlns="http://www.w3.org/2000/svg" xmlns:xlink="http://www.w3.org/1999/xlink" x="0px" y="0px"
	 viewBox="0 0 900 900" style="enable-background:new 0 0 900 900;" xml:space="preserve">
<style type="text/css">
	.st0{fill:none;}
	.st1{fill:none;stroke:#000000;stroke-width:4;stroke-miterlimit:10;}
	.st2{fill:url(#New_Pattern_2);}
</style>
<pattern  width="328" height="328" patternUnits="userSpaceOnUse" id="New_Pattern_2" viewBox="138.66 -415.35 328 328" style="overflow:visible;">
	<g>
		<rect x="138.66" y="-415.35" class="st0" width="328" height="328"/>
		<g>
			<line class="st1" x1="388.83" y1="-200.94" x2="309.99" y2="-122.1"/>
			<line class="st1" x1="423.79" y1="-205.39" x2="347.36" y2="-128.96"/>
			<line class="st1" x1="444.62" y1="-199.7" x2="321" y2="-76.08"/>
			<line class="st1" x1="452.85" y1="-180.41" x2="310.76" y2="-38.32"/>
			<line class="st1" x1="462.59" y1="-132" x2="373.3" y2="-42.7"/>
			<line class="st1" x1="466.67" y1="-112.63" x2="355.46" y2="-1.41"/>
			<line class="st1" x1="497.06" y1="-115.3" x2="397.06" y2="-15.3"/>
			<line class="st1" x1="469.01" y1="-169.06" x2="329.41" y2="-29.46"/>
		</g>
		<g>
			<line class="st1" x1="224.83" y1="-200.94" x2="145.99" y2="-122.1"/>
			<line class="st1" x1="259.79" y1="-205.39" x2="183.36" y2="-128.96"/>
			<line class="st1" x1="280.62" y1="-199.7" x2="157" y2="-76.08"/>
			<line class="st1" x1="288.85" y1="-180.41" x2="146.76" y2="-38.32"/>
			<line class="st1" x1="298.59" y1="-132" x2="209.3" y2="-42.7"/>
			<line class="st1" x1="302.67" y1="-112.63" x2="191.46" y2="-1.41"/>
			<line class="st1" x1="333.06" y1="-115.3" x2="233.06" y2="-15.3"/>
			<line class="st1" x1="305.01" y1="-169.06" x2="165.41" y2="-29.46"/>
		</g>
		<g>
			<line class="st1" x1="138.67" y1="-112.63" x2="27.46" y2="-1.41"/>
			<line class="st1" x1="169.06" y1="-115.3" x2="69.06" y2="-15.3"/>
			<line class="st1" x1="141.01" y1="-169.06" x2="1.41" y2="-29.46"/>
		</g>
		<g>
			<line class="st1" x1="470.83" y1="-364.94" x2="391.99" y2="-286.1"/>
			<line class="st1" x1="505.79" y1="-369.39" x2="429.36" y2="-292.96"/>
			<line class="st1" x1="526.62" y1="-363.7" x2="403" y2="-240.08"/>
			<line class="st1" x1="534.85" y1="-344.41" x2="392.76" y2="-202.32"/>
			<line class="st1" x1="544.59" y1="-296" x2="455.3" y2="-206.7"/>
			<line class="st1" x1="548.67" y1="-276.63" x2="437.46" y2="-165.41"/>
			<line class="st1" x1="559.08" y1="-232" x2="464.97" y2="-137.9"/>
			<line class="st1" x1="551.01" y1="-333.06" x2="411.41" y2="-193.46"/>
		</g>
		<g>
			<line class="st1" x1="306.83" y1="-364.94" x2="227.99" y2="-286.1"/>
			<line class="st1" x1="341.79" y1="-369.39" x2="265.36" y2="-292.96"/>
			<line class="st1" x1="362.62" y1="-363.7" x2="239" y2="-240.08"/>
			<line class="st1" x1="370.85" y1="-344.41" x2="228.76" y2="-202.32"/>
			<line class="st1" x1="380.59" y1="-296" x2="291.3" y2="-206.7"/>
			<line class="st1" x1="384.67" y1="-276.63" x2="273.46" y2="-165.41"/>
			<line class="st1" x1="415.06" y1="-279.3" x2="315.06" y2="-179.3"/>
			<line class="st1" x1="395.08" y1="-232" x2="300.97" y2="-137.9"/>
			<line class="st1" x1="387.01" y1="-333.06" x2="247.41" y2="-193.46"/>
		</g>
		<g>
			<line class="st1" x1="142.83" y1="-364.94" x2="63.99" y2="-286.1"/>
			<line class="st1" x1="177.79" y1="-369.39" x2="101.36" y2="-292.96"/>
			<line class="st1" x1="198.62" y1="-363.7" x2="75" y2="-240.08"/>
			<line class="st1" x1="206.85" y1="-344.41" x2="64.76" y2="-202.32"/>
			<line class="st1" x1="216.59" y1="-296" x2="127.3" y2="-206.7"/>
			<line class="st1" x1="220.67" y1="-276.63" x2="109.46" y2="-165.41"/>
			<line class="st1" x1="251.06" y1="-279.3" x2="151.06" y2="-179.3"/>
			<line class="st1" x1="231.08" y1="-232" x2="136.97" y2="-137.9"/>
			<line class="st1" x1="223.01" y1="-333.06" x2="83.41" y2="-193.46"/>
		</g>
		<g>
			<line class="st1" x1="444.62" y1="-527.7" x2="321" y2="-404.08"/>
			<line class="st1" x1="452.85" y1="-508.41" x2="310.76" y2="-366.32"/>
			<line class="st1" x1="462.59" y1="-460" x2="373.3" y2="-370.7"/>
			<line class="st1" x1="466.67" y1="-440.63" x2="355.46" y2="-329.41"/>
			<line class="st1" x1="497.06" y1="-443.3" x2="397.06" y2="-343.3"/>
			<line class="st1" x1="477.08" y1="-396" x2="382.97" y2="-301.9"/>
			<line class="st1" x1="469.01" y1="-497.06" x2="329.41" y2="-357.46"/>
		</g>
		<g>
			<line class="st1" x1="280.62" y1="-527.7" x2="157" y2="-404.08"/>
			<line class="st1" x1="288.85" y1="-508.41" x2="146.76" y2="-366.32"/>
			<line class="st1" x1="298.59" y1="-460" x2="209.3" y2="-370.7"/>
			<line class="st1" x1="302.67" y1="-440.63" x2="191.46" y2="-329.41"/>
			<line class="st1" x1="333.06" y1="-443.3" x2="233.06" y2="-343.3"/>
			<line class="st1" x1="313.08" y1="-396" x2="218.97" y2="-301.9"/>
			<line class="st1" x1="305.01" y1="-497.06" x2="165.41" y2="-357.46"/>
		</g>
		<g>
			<line class="st1" x1="138.67" y1="-440.63" x2="27.46" y2="-329.41"/>
			<line class="st1" x1="169.06" y1="-443.3" x2="69.06" y2="-343.3"/>
			<line class="st1" x1="149.08" y1="-396" x2="54.97" y2="-301.9"/>
			<line class="st1" x1="141.01" y1="-497.06" x2="1.41" y2="-357.46"/>
		</g>
	</g>
</pattern>
<rect class="st2" width="900" height="900"/>
</svg>
